<?xml version="1.0" encoding="UTF-8"?>
<svg id="Calque_1" xmlns="http://www.w3.org/2000/svg" xmlns:xlink="http://www.w3.org/1999/xlink" viewBox="0 0 200 60">
  <defs>
    <style>
      .cls-1 {
        fill: none;
      }

      .cls-2 {
        fill: #a6a6a6;
      }

      .cls-3 {
        fill: #fff;
      }

      .cls-4 {
        clip-path: url(#clippath);
      }
    </style>
    <clipPath id="clippath">
      <rect class="cls-1" width="200" height="60"/>
    </clipPath>
  </defs>
  <g class="cls-4">
    <path class="cls-2" d="M184.94,0H15.07C14.5,0,13.92,0,13.34,0c-.49,0-.97.01-1.45.02-1.05.03-2.12.09-3.17.26-1.06.18-2.04.48-3,.94-.95.46-1.81,1.06-2.56,1.77-.76.71-1.38,1.53-1.86,2.43-.49.91-.81,1.85-.99,2.86-.19.99-.25,2-.28,3-.02.46-.02.92-.02,1.38v34.67c0,.46,0,.92.02,1.38.03,1,.09,2.01.28,3,.18,1,.5,1.95.99,2.86.48.89,1.1,1.72,1.86,2.42.75.72,1.61,1.31,2.56,1.77.96.47,1.95.76,3,.95,1.05.18,2.12.24,3.17.26.49,0,.97.02,1.45.02.58,0,1.15,0,1.73,0h169.86c.57,0,1.14,0,1.71,0,.48,0,.97,0,1.46-.02,1.06-.03,2.12-.09,3.16-.26,1.06-.18,2.04-.48,3.02-.95.94-.46,1.81-1.05,2.56-1.77.75-.71,1.38-1.53,1.87-2.42.49-.91.8-1.85.98-2.86.19-.99.26-2,.3-3,0-.47,0-.92,0-1.38.01-.54.01-1.09.01-1.64V14.3c0-.55,0-1.09-.01-1.64,0-.46,0-.92,0-1.38-.04-1.01-.1-2.01-.3-3-.18-1.01-.49-1.94-.98-2.86-.49-.9-1.11-1.72-1.87-2.43-.75-.71-1.61-1.31-2.56-1.77-.97-.46-1.96-.76-3.02-.94-1.04-.18-2.1-.24-3.16-.26-.48,0-.98-.02-1.46-.02-.57,0-1.15,0-1.71,0"/>
    <path d="M13.35,58.69c-.48,0-.95,0-1.43-.02-.88-.02-1.93-.07-2.96-.25-.96-.17-1.82-.44-2.62-.82-.83-.4-1.57-.91-2.21-1.52-.65-.61-1.19-1.31-1.61-2.09-.41-.76-.69-1.57-.86-2.49-.19-1.01-.24-2.03-.27-2.81-.01-.32-.02-1.37-.02-1.37V12.67s.01-1.04.02-1.34c.02-.79.07-1.81.26-2.81.17-.92.45-1.73.86-2.49.42-.79.96-1.49,1.61-2.1.65-.62,1.4-1.14,2.21-1.53.81-.39,1.67-.66,2.61-.81,1.07-.18,2.14-.23,2.97-.25l1.43-.02h173.29l1.44.02c.81.02,1.89.06,2.94.25.95.16,1.81.43,2.64.82.81.39,1.55.91,2.2,1.52.64.61,1.19,1.32,1.62,2.11.41.77.68,1.58.85,2.47.18.95.24,1.92.28,2.83,0,.42,0,.88,0,1.34.01.56.01,1.1.01,1.64v31.39c0,.55,0,1.08-.01,1.61,0,.49,0,.94,0,1.39-.03.88-.09,1.86-.27,2.78-.16.92-.44,1.73-.86,2.51-.43.78-.97,1.48-1.6,2.08-.65.63-1.4,1.14-2.21,1.53-.82.39-1.65.66-2.63.82-1.01.18-2.06.22-2.96.25-.46,0-.95.02-1.42.02h-1.71s-171.58,0-171.58,0Z"/>
  </g>
  <polygon class="cls-3" points="56.37 21.62 56.37 13.52 53.4 13.52 53.4 12.19 60.79 12.19 60.79 13.52 57.84 13.52 57.84 21.62 56.37 21.62"/>
  <path class="cls-3" d="M63.67,13.31l1.64-2.25h1.65l-1.84,2.25h-1.45ZM62.67,17.41h3.6c-.03-1.12-.71-1.84-1.75-1.84s-1.76.73-1.84,1.84M67.61,19.7c-.32,1.27-1.46,2.06-3.08,2.06-2.04,0-3.29-1.4-3.29-3.67s1.27-3.72,3.28-3.72,3.17,1.36,3.17,3.59v.49h-5.03v.08c.05,1.25.77,2.04,1.9,2.04.85,0,1.43-.31,1.69-.86h1.35Z"/>
  <rect class="cls-3" x="69.65" y="11.72" width="1.41" height="9.9"/>
  <path class="cls-3" d="M75.44,13.31l1.64-2.25h1.65l-1.84,2.25h-1.45ZM74.43,17.41h3.6c-.03-1.12-.71-1.84-1.75-1.84s-1.76.73-1.84,1.84M79.38,19.7c-.32,1.27-1.46,2.06-3.08,2.06-2.04,0-3.29-1.4-3.29-3.67s1.27-3.72,3.28-3.72,3.17,1.36,3.17,3.59v.49h-5.03v.08c.05,1.25.77,2.04,1.9,2.04.85,0,1.43-.31,1.69-.86h1.35Z"/>
  <path class="cls-3" d="M86.01,16.83c-.16-.69-.74-1.21-1.68-1.21-1.18,0-1.9.9-1.9,2.42s.72,2.46,1.9,2.46c.89,0,1.5-.41,1.68-1.17h1.37c-.18,1.43-1.28,2.43-3.04,2.43-2.07,0-3.34-1.4-3.34-3.72s1.26-3.67,3.34-3.67c1.78,0,2.87,1.04,3.05,2.46h-1.37Z"/>
  <path class="cls-3" d="M89.24,11.73h1.39v3.92h.11c.35-.8,1.1-1.27,2.17-1.27,1.52,0,2.45.96,2.45,2.65v4.6h-1.41v-4.25c0-1.13-.53-1.71-1.52-1.71-1.15,0-1.79.73-1.79,1.81v4.16h-1.41v-9.9Z"/>
  <path class="cls-3" d="M101.71,19v-.6l-1.74.11c-.98.07-1.43.4-1.43,1.03s.56,1.01,1.32,1.01c1.06,0,1.85-.67,1.85-1.55M97.13,19.61c0-1.28.95-2.02,2.65-2.12l1.93-.11v-.61c0-.75-.5-1.17-1.46-1.17-.79,0-1.33.29-1.49.79h-1.36c.14-1.22,1.29-2.01,2.91-2.01,1.78,0,2.79.89,2.79,2.39v4.87h-1.35v-1h-.11c-.43.71-1.2,1.12-2.14,1.12-1.37,0-2.37-.83-2.37-2.13"/>
  <path class="cls-3" d="M105.31,14.51h1.35v1.09h.1c.2-.7.99-1.21,1.92-1.21.21,0,.48.02.63.06v1.39c-.12-.04-.54-.09-.79-.09-1.06,0-1.82.67-1.82,1.67v4.2h-1.41v-7.12Z"/>
  <path class="cls-3" d="M115.59,17.97c0-1.42-.73-2.33-1.93-2.33s-1.89.91-1.89,2.33.68,2.33,1.89,2.33,1.93-.9,1.93-2.33M110.6,22.34h1.44c.12.52.71.85,1.66.85,1.17,0,1.86-.55,1.86-1.5v-1.37h-.1c-.43.77-1.22,1.19-2.2,1.19-1.82,0-2.94-1.4-2.94-3.54s1.14-3.59,2.96-3.59c.98,0,1.84.48,2.23,1.25h.11v-1.14h1.35v7.18c0,1.63-1.27,2.66-3.29,2.66-1.78,0-2.93-.8-3.08-2.01"/>
  <path class="cls-3" d="M120.29,17.41h3.6c-.03-1.12-.71-1.84-1.75-1.84s-1.76.73-1.84,1.84M125.23,19.7c-.32,1.27-1.46,2.06-3.08,2.06-2.04,0-3.29-1.4-3.29-3.67s1.27-3.72,3.28-3.72,3.17,1.36,3.17,3.59v.49h-5.03v.08c.05,1.25.77,2.04,1.9,2.04.85,0,1.43-.31,1.69-.86h1.35Z"/>
  <path class="cls-3" d="M127.2,14.51h1.35v1.09h.1c.2-.7.99-1.21,1.92-1.21.21,0,.48.02.63.06v1.39c-.12-.04-.54-.09-.79-.09-1.06,0-1.82.67-1.82,1.67v4.2h-1.41v-7.12Z"/>
  <path class="cls-3" d="M137.72,18.06c0,1.51.71,2.42,1.9,2.42s1.92-.92,1.92-2.41-.74-2.42-1.92-2.42-1.9.92-1.9,2.41M136.27,18.06c0-2.25,1.16-3.67,2.96-3.67.97,0,1.8.46,2.18,1.25h.11v-3.91h1.4v9.9h-1.35v-1.13h-.11c-.43.78-1.25,1.24-2.23,1.24-1.81,0-2.96-1.43-2.96-3.68"/>
  <path class="cls-3" d="M149.39,19v-.6l-1.74.11c-.98.07-1.43.4-1.43,1.03s.56,1.01,1.32,1.01c1.06,0,1.85-.67,1.85-1.55M144.82,19.61c0-1.28.95-2.02,2.65-2.12l1.93-.11v-.61c0-.75-.5-1.17-1.46-1.17-.79,0-1.33.29-1.49.79h-1.36c.14-1.22,1.3-2.01,2.91-2.01,1.78,0,2.79.89,2.79,2.39v4.87h-1.35v-1h-.11c-.43.71-1.2,1.12-2.14,1.12-1.37,0-2.37-.83-2.37-2.13"/>
  <path class="cls-3" d="M152.99,14.51h1.35v1.13h.1c.35-.79,1.05-1.27,2.12-1.27,1.59,0,2.47.95,2.47,2.65v4.61h-1.41v-4.26c0-1.14-.5-1.71-1.54-1.71s-1.7.69-1.7,1.8v4.17h-1.41v-7.12Z"/>
  <path class="cls-3" d="M163.81,14.37c1.6,0,2.65.74,2.78,2h-1.35c-.13-.52-.64-.86-1.44-.86s-1.38.37-1.38.93c0,.43.36.69,1.13.87l1.18.28c1.36.31,1.99.9,1.99,1.94,0,1.34-1.25,2.23-2.95,2.23s-2.8-.76-2.92-2.02h1.41c.18.55.7.89,1.55.89s1.5-.39,1.5-.96c0-.42-.33-.7-1.05-.87l-1.24-.29c-1.35-.32-1.98-.93-1.98-1.99,0-1.26,1.16-2.15,2.76-2.15"/>
  <rect class="cls-3" x="55.65" y="26.94" width="2.94" height="19.63"/>
  <polygon class="cls-3" points="62.13 34.13 63.73 26.94 66.59 26.94 64.64 34.13 62.13 34.13"/>
  <path class="cls-3" d="M70.99,38.82h5.93l-2.93-8.61h-.08l-2.93,8.61ZM77.7,41.27h-7.48l-1.8,5.3h-3.17l7.09-19.63h3.29l7.09,19.63h-3.22l-1.8-5.3Z"/>
  <path class="cls-3" d="M95,39.42c0-2.9-1.5-4.8-3.78-4.8s-3.76,1.95-3.76,4.8,1.51,4.81,3.76,4.81,3.78-1.89,3.78-4.81M98.02,39.42c0,4.45-2.38,7.3-5.97,7.3-2.04,0-3.66-.91-4.51-2.5h-.07v7.09h-2.94v-19.05h2.84v2.38h.05c.82-1.54,2.56-2.53,4.56-2.53,3.63,0,6.03,2.87,6.03,7.31"/>
  <path class="cls-3" d="M110.76,39.42c0-2.9-1.5-4.8-3.78-4.8s-3.76,1.95-3.76,4.8,1.51,4.81,3.76,4.81,3.78-1.89,3.78-4.81M113.78,39.42c0,4.45-2.38,7.3-5.97,7.3-2.04,0-3.66-.91-4.51-2.5h-.07v7.09h-2.94v-19.05h2.84v2.38h.05c.82-1.54,2.56-2.53,4.56-2.53,3.63,0,6.03,2.87,6.03,7.31"/>
  <path class="cls-3" d="M124.19,41.11c.22,1.95,2.11,3.22,4.69,3.22s4.26-1.28,4.26-3.03c0-1.52-1.07-2.44-3.62-3.06l-2.54-.61c-3.6-.87-5.28-2.56-5.28-5.29,0-3.39,2.95-5.71,7.14-5.71s6.99,2.33,7.09,5.71h-2.96c-.18-1.96-1.8-3.14-4.17-3.14s-3.99,1.2-3.99,2.94c0,1.39,1.04,2.2,3.57,2.83l2.16.53c4.03.95,5.7,2.57,5.7,5.45,0,3.67-2.93,5.97-7.58,5.97-4.36,0-7.29-2.25-7.48-5.8h3.01Z"/>
  <path class="cls-3" d="M142.58,28.88v3.39h2.72v2.33h-2.72v7.89c0,1.22.54,1.8,1.74,1.8.3,0,.78-.04.97-.07v2.32c-.33.08-.98.13-1.63.13-2.9,0-4.03-1.09-4.03-3.86v-8.21h-2.08v-2.33h2.08v-3.39h2.95Z"/>
  <path class="cls-3" d="M157.47,39.42c0-3.09-1.42-4.91-3.8-4.91s-3.79,1.84-3.79,4.91,1.42,4.91,3.79,4.91,3.8-1.81,3.8-4.91M146.88,39.42c0-4.51,2.65-7.33,6.79-7.33s6.79,2.83,6.79,7.33-2.63,7.33-6.79,7.33-6.79-2.82-6.79-7.33"/>
  <path class="cls-3" d="M162.88,32.26h2.8v2.44h.07c.45-1.62,1.76-2.59,3.45-2.59.42,0,.78.06,1.01.11v2.75c-.23-.09-.75-.18-1.32-.18-1.89,0-3.06,1.28-3.06,3.29v8.49h-2.94v-14.31Z"/>
  <path class="cls-3" d="M173.82,38.1h7.16c-.07-2.19-1.47-3.63-3.51-3.63s-3.49,1.47-3.64,3.63M183.75,42.37c-.4,2.6-2.93,4.38-6.16,4.38-4.16,0-6.75-2.79-6.75-7.26s2.6-7.4,6.62-7.4,6.45,2.72,6.45,7.06v1.01h-10.11v.18c0,2.45,1.54,4.05,3.85,4.05,1.63,0,2.91-.78,3.31-2.01h2.79Z"/>
  <path class="cls-3" d="M39.38,30.6c-.04-4.35,3.56-6.46,3.72-6.56-2.04-2.97-5.2-3.38-6.31-3.41-2.65-.28-5.23,1.59-6.58,1.59s-3.46-1.56-5.7-1.51c-2.89.04-5.59,1.72-7.07,4.31-3.06,5.29-.77,13.07,2.15,17.35,1.46,2.1,3.18,4.43,5.42,4.35,2.19-.09,3.01-1.4,5.65-1.4s3.39,1.4,5.67,1.34c2.35-.04,3.84-2.11,5.25-4.22,1.69-2.4,2.37-4.77,2.4-4.89-.06-.02-4.57-1.74-4.61-6.95"/>
  <path class="cls-3" d="M35.06,17.82c1.18-1.48,1.99-3.48,1.76-5.52-1.71.08-3.84,1.18-5.07,2.62-1.09,1.27-2.06,3.35-1.81,5.31,1.92.14,3.88-.97,5.11-2.42"/>
</svg>