<?xml version="1.0" encoding="UTF-8"?>
<svg id="Calque_1" data-name="Calque 1" xmlns="http://www.w3.org/2000/svg" xmlns:xlink="http://www.w3.org/1999/xlink" viewBox="0 0 200 60">
  <defs>
    <style>
      .cls-1, .cls-2 {
        fill: none;
      }

      .cls-3 {
        fill: #a6a6a6;
      }

      .cls-4 {
        clip-path: url(#clippath-1);
      }

      .cls-5 {
        clip-path: url(#clippath-3);
      }

      .cls-6 {
        clip-path: url(#clippath-2);
      }

      .cls-7 {
        fill: #fff;
      }

      .cls-8 {
        fill: #68696d;
      }

      .cls-2 {
        stroke: #fff;
        stroke-miterlimit: 10;
        stroke-width: .14px;
      }

      .cls-9 {
        clip-path: url(#clippath);
      }
    </style>
    <clipPath id="clippath">
      <path class="cls-1" d="M33.91,29.78v.44l6.11,6.19.14-.08,7.24-4.16c2.07-1.19,2.07-3.14,0-4.33l-7.24-4.17-.14-.08-6.11,6.19Z"/>
    </clipPath>
    <clipPath id="clippath-1">
      <rect class="cls-1" x="0" y="0" width="200" height="60"/>
    </clipPath>
    <clipPath id="clippath-2">
      <path class="cls-1" d="M15.46,48.68c.68.73,1.81.82,3.07.09l21.63-12.44-6.25-6.33-18.45,18.68Z"/>
    </clipPath>
    <clipPath id="clippath-3">
      <path class="cls-1" d="M15.46,11.32l18.45,18.68,6.25-6.33-21.63-12.44c-.59-.34-1.16-.5-1.66-.5-.57,0-1.05.21-1.41.6"/>
    </clipPath>
  </defs>
  <path d="M192.59,60H7.41c-4.07,0-7.41-3.37-7.41-7.5V7.5C0,3.38,3.34,0,7.41,0h185.18c4.07,0,7.41,3.38,7.41,7.5v45c0,4.13-3.33,7.5-7.41,7.5"/>
  <path d="M192.59,0H7.41C3.34,0,0,3.38,0,7.5v45c0,4.13,3.34,7.5,7.41,7.5h185.18c4.07,0,7.41-3.37,7.41-7.5V7.5C200,3.38,196.67,0,192.59,0M192.59,1.2c3.43,0,6.22,2.83,6.22,6.3v45c0,3.47-2.79,6.3-6.22,6.3H7.41c-3.43,0-6.22-2.83-6.22-6.3V7.5C1.19,4.03,3.98,1.2,7.41,1.2h185.18Z"/>
  <path class="cls-7" d="M158.42,45h2.76v-18.75h-2.76v18.75ZM183.32,33l-3.17,8.13h-.09l-3.29-8.13h-2.98l4.93,11.36-2.81,6.32h2.88l7.6-17.68h-3.07ZM167.64,42.87c-.91,0-2.17-.46-2.17-1.59,0-1.45,1.57-2,2.93-2,1.21,0,1.79.27,2.52.63-.21,1.74-1.69,2.97-3.29,2.97M167.98,32.59c-2,0-4.07.89-4.93,2.87l2.45,1.04c.53-1.04,1.5-1.38,2.52-1.38,1.43,0,2.88.87,2.91,2.41v.19c-.5-.29-1.57-.72-2.88-.72-2.64,0-5.34,1.47-5.34,4.22,0,2.51,2.17,4.13,4.6,4.13,1.86,0,2.88-.84,3.53-1.83h.09v1.45h2.67v-7.19c0-3.33-2.46-5.19-5.62-5.19M150.9,35.29h-3.93v-6.43h3.93c2.07,0,3.24,1.73,3.24,3.21s-1.17,3.22-3.24,3.22M150.82,26.25h-6.62v18.75h2.76v-7.11h3.86c3.07,0,6.07-2.25,6.07-5.83s-3.01-5.82-6.07-5.82M114.7,42.87c-1.91,0-3.51-1.62-3.51-3.84s1.6-3.89,3.51-3.89,3.36,1.64,3.36,3.89-1.48,3.84-3.36,3.84M117.88,34.05h-.09c-.62-.75-1.81-1.43-3.32-1.43-3.15,0-6.04,2.8-6.04,6.4s2.89,6.35,6.04,6.35c1.5,0,2.7-.67,3.32-1.45h.09v.92c0,2.44-1.29,3.75-3.36,3.75-1.69,0-2.74-1.23-3.17-2.27l-2.41,1.02c.69,1.69,2.53,3.77,5.58,3.77,3.25,0,5.99-1.93,5.99-6.64v-11.46h-2.63v1.04ZM122.41,45h2.77v-18.75h-2.77v18.75ZM129.26,38.81c-.07-2.46,1.88-3.72,3.29-3.72,1.1,0,2.03.56,2.34,1.35l-5.63,2.37ZM137.85,36.69c-.53-1.42-2.12-4.06-5.39-4.06s-5.94,2.58-5.94,6.38c0,3.58,2.67,6.38,6.25,6.38,2.89,0,4.56-1.79,5.25-2.83l-2.15-1.45c-.72,1.06-1.69,1.77-3.1,1.77s-2.41-.65-3.05-1.94l8.42-3.53-.29-.73ZM70.73,34.59v2.71h6.4c-.19,1.52-.69,2.63-1.46,3.41-.93.94-2.39,1.98-4.94,1.98-3.94,0-7.01-3.22-7.01-7.2s3.08-7.2,7.01-7.2c2.13,0,3.68.84,4.82,1.93l1.89-1.91c-1.6-1.55-3.73-2.73-6.71-2.73-5.39,0-9.93,4.45-9.93,9.91s4.53,9.91,9.93,9.91c2.91,0,5.11-.97,6.83-2.78,1.77-1.79,2.32-4.3,2.32-6.33,0-.63-.05-1.21-.14-1.69h-9ZM87.15,42.87c-1.91,0-3.56-1.59-3.56-3.87s1.65-3.86,3.56-3.86,3.56,1.57,3.56,3.86-1.65,3.87-3.56,3.87M87.15,32.63c-3.49,0-6.33,2.68-6.33,6.38s2.84,6.38,6.33,6.38,6.32-2.71,6.32-6.38-2.84-6.38-6.32-6.38M100.94,42.87c-1.91,0-3.56-1.59-3.56-3.87s1.65-3.86,3.56-3.86,3.56,1.57,3.56,3.86-1.65,3.87-3.56,3.87M100.94,32.63c-3.48,0-6.33,2.68-6.33,6.38s2.84,6.38,6.33,6.38,6.33-2.71,6.33-6.38-2.84-6.38-6.33-6.38"/>
  <path class="cls-3" d="M15.46,11.32c-.43.46-.69,1.18-.69,2.1v33.15c0,.93.25,1.64.69,2.1l.11.11,18.34-18.57v-.44L15.57,11.21l-.11.11Z"/>
  <rect class="cls-1" x="0" y="0" width="200" height="60"/>
  <g class="cls-9">
    <rect class="cls-3" x="33.91" y="23.59" width="15.56" height="12.82"/>
  </g>
  <g class="cls-4">
    <path class="cls-3" d="M40.16,36.33l-6.25-6.33-18.45,18.68c.68.73,1.81.82,3.07.09l21.63-12.44Z"/>
  </g>
  <g class="cls-6">
    <rect class="cls-8" x="15.46" y="30" width="24.7" height="19.5"/>
  </g>
  <g class="cls-5">
    <rect class="cls-7" x="15.46" y="10.5" width="24.7" height="19.5"/>
  </g>
  <path class="cls-7" d="M62.29,18.4h1.58c1.02,0,1.84-.3,2.44-.89.6-.6.9-1.43.9-2.5s-.3-1.89-.9-2.49-1.41-.9-2.44-.9h-1.58v6.79ZM61.15,19.5v-9h2.72c1.36,0,2.46.42,3.28,1.25s1.23,1.92,1.23,3.25-.41,2.42-1.23,3.25-1.91,1.25-3.28,1.25h-2.72Z"/>
  <path class="cls-2" d="M62.29,18.4h1.58c1.02,0,1.84-.3,2.44-.89.6-.6.9-1.43.9-2.5s-.3-1.89-.9-2.49-1.41-.9-2.44-.9h-1.58v6.79ZM61.15,19.5v-9h2.72c1.36,0,2.46.42,3.28,1.25s1.23,1.92,1.23,3.25-.41,2.42-1.23,3.25-1.91,1.25-3.28,1.25h-2.72Z"/>
  <rect class="cls-7" x="69.98" y="10.5" width="1.14" height="9"/>
  <rect class="cls-2" x="69.98" y="10.5" width="1.14" height="9"/>
  <path class="cls-7" d="M75.67,19.7c-.64,0-1.28-.21-1.89-.64-.62-.43-1.02-1.03-1.21-1.8l1.04-.43c.12.49.38.91.76,1.25.39.34.82.51,1.3.51s.92-.13,1.27-.4c.35-.26.53-.62.53-1.07,0-.5-.17-.89-.53-1.16-.35-.27-.91-.53-1.67-.76-.79-.25-1.38-.57-1.79-.97-.41-.4-.61-.91-.61-1.53s.25-1.21.76-1.68c.5-.48,1.16-.72,1.97-.72.75,0,1.37.19,1.84.57.47.38.78.8.92,1.25l-1.04.44c-.08-.28-.26-.55-.55-.79-.3-.25-.67-.37-1.14-.37-.44,0-.81.12-1.12.37-.31.25-.47.55-.47.92,0,.33.14.62.43.85.29.23.71.44,1.26.62.44.14.8.28,1.1.41.29.13.59.31.89.53.3.22.53.5.69.83.15.33.23.71.23,1.15s-.09.82-.27,1.17c-.18.34-.42.62-.71.82-.3.2-.61.35-.95.46s-.69.16-1.04.16"/>
  <path class="cls-2" d="M75.67,19.7c-.64,0-1.28-.21-1.89-.64-.62-.43-1.02-1.03-1.21-1.8l1.04-.43c.12.49.38.91.76,1.25.39.34.82.51,1.3.51s.92-.13,1.27-.4c.35-.26.53-.62.53-1.07,0-.5-.17-.89-.53-1.16-.35-.27-.91-.53-1.67-.76-.79-.25-1.38-.57-1.79-.97-.41-.4-.61-.91-.61-1.53s.25-1.21.76-1.68c.5-.48,1.16-.72,1.97-.72.75,0,1.37.19,1.84.57.47.38.78.8.92,1.25l-1.04.44c-.08-.28-.26-.55-.55-.79-.3-.25-.67-.37-1.14-.37-.44,0-.81.12-1.12.37-.31.25-.47.55-.47.92,0,.33.14.62.43.85.29.23.71.44,1.26.62.44.14.8.28,1.1.41.29.13.59.31.89.53.3.22.53.5.69.83.15.33.23.71.23,1.15s-.09.82-.27,1.17c-.18.34-.42.62-.71.82-.3.2-.61.35-.95.46s-.69.16-1.04.16Z"/>
  <path class="cls-7" d="M81.41,14.75h1.91c.48,0,.86-.16,1.16-.49.29-.33.43-.69.43-1.08s-.14-.75-.43-1.08c-.29-.32-.68-.49-1.16-.49h-1.91v3.14ZM81.41,19.5h-1.14v-9h3.03c.75,0,1.41.25,1.96.76.55.51.83,1.15.83,1.92s-.28,1.41-.83,1.92c-.55.51-1.2.76-1.96.76h-1.89v3.64Z"/>
  <path class="cls-2" d="M81.41,14.75h1.91c.48,0,.86-.16,1.16-.49.29-.33.43-.69.43-1.08s-.14-.75-.43-1.08c-.29-.32-.68-.49-1.16-.49h-1.91v3.14ZM81.41,19.5h-1.14v-9h3.03c.75,0,1.41.25,1.96.76.55.51.83,1.15.83,1.92s-.28,1.41-.83,1.92c-.55.51-1.2.76-1.96.76h-1.89v3.64Z"/>
  <path class="cls-7" d="M89.12,17.58c.66.67,1.46,1.01,2.41,1.01s1.76-.34,2.41-1.01c.66-.67.99-1.53.99-2.58s-.33-1.91-.99-2.58c-.66-.67-1.46-1.01-2.41-1.01s-1.75.33-2.41,1.01c-.66.67-.99,1.54-.99,2.58s.33,1.91.99,2.58M94.79,18.34c-.87.91-1.96,1.36-3.26,1.36s-2.39-.45-3.26-1.36c-.87-.91-1.31-2.02-1.31-3.34s.43-2.43,1.31-3.34c.87-.91,1.96-1.37,3.26-1.37s2.38.46,3.25,1.37c.88.91,1.31,2.02,1.31,3.33s-.44,2.43-1.31,3.34"/>
  <path class="cls-2" d="M89.12,17.58c.66.67,1.46,1.01,2.41,1.01s1.76-.34,2.41-1.01c.66-.67.99-1.53.99-2.58s-.33-1.91-.99-2.58c-.66-.67-1.46-1.01-2.41-1.01s-1.75.33-2.41,1.01c-.66.67-.99,1.54-.99,2.58s.33,1.91.99,2.58ZM94.79,18.34c-.87.91-1.96,1.36-3.26,1.36s-2.39-.45-3.26-1.36c-.87-.91-1.31-2.02-1.31-3.34s.43-2.43,1.31-3.34c.87-.91,1.96-1.37,3.26-1.37s2.38.46,3.25,1.37c.88.91,1.31,2.02,1.31,3.33s-.44,2.43-1.31,3.34Z"/>
  <polygon class="cls-7" points="97.7 19.5 97.7 10.5 99.09 10.5 103.41 17.5 103.46 17.5 103.41 15.77 103.41 10.5 104.56 10.5 104.56 19.5 103.36 19.5 98.84 12.16 98.79 12.16 98.84 13.89 98.84 19.5 97.7 19.5"/>
  <polygon class="cls-2" points="97.7 19.5 97.7 10.5 99.09 10.5 103.41 17.5 103.46 17.5 103.41 15.77 103.41 10.5 104.56 10.5 104.56 19.5 103.36 19.5 98.84 12.16 98.79 12.16 98.84 13.89 98.84 19.5 97.7 19.5"/>
  <rect class="cls-7" x="106.59" y="10.5" width="1.14" height="9"/>
  <rect class="cls-2" x="106.59" y="10.5" width="1.14" height="9"/>
  <path class="cls-7" d="M110.91,18.4h2.3c.44,0,.79-.16,1.07-.47.27-.31.41-.65.41-1.02s-.14-.7-.42-1.01c-.28-.31-.65-.46-1.1-.46h-2.25v2.96ZM110.91,14.36h2.07c.43,0,.78-.14,1.04-.43.26-.29.39-.6.39-.95s-.13-.66-.38-.94c-.25-.29-.58-.43-1-.43h-2.13v2.75ZM109.77,19.5v-9h3.21c.7,0,1.3.23,1.81.7.51.46.76,1.05.76,1.75,0,.43-.11.8-.33,1.13-.22.33-.51.58-.87.74v.05c.44.15.8.41,1.08.78.28.37.42.8.42,1.28,0,.74-.27,1.35-.8,1.84-.53.49-1.16.73-1.89.73h-3.39Z"/>
  <path class="cls-2" d="M110.91,18.4h2.3c.44,0,.79-.16,1.07-.47.27-.31.41-.65.41-1.02s-.14-.7-.42-1.01c-.28-.31-.65-.46-1.1-.46h-2.25v2.96ZM110.91,14.36h2.07c.43,0,.78-.14,1.04-.43.26-.29.39-.6.39-.95s-.13-.66-.38-.94c-.25-.29-.58-.43-1-.43h-2.13v2.75ZM109.77,19.5v-9h3.21c.7,0,1.3.23,1.81.7.51.46.76,1.05.76,1.75,0,.43-.11.8-.33,1.13-.22.33-.51.58-.87.74v.05c.44.15.8.41,1.08.78.28.37.42.8.42,1.28,0,.74-.27,1.35-.8,1.84-.53.49-1.16.73-1.89.73h-3.39Z"/>
  <polygon class="cls-7" points="117.39 19.5 117.39 10.5 118.53 10.5 118.53 18.4 122.38 18.4 122.38 19.5 117.39 19.5"/>
  <polygon class="cls-2" points="117.39 19.5 117.39 10.5 118.53 10.5 118.53 18.4 122.38 18.4 122.38 19.5 117.39 19.5"/>
  <polygon class="cls-7" points="129.01 11.61 124.96 11.61 124.96 14.46 128.62 14.46 128.62 15.54 124.96 15.54 124.96 18.39 129.01 18.39 129.01 19.5 123.82 19.5 123.82 10.5 129.01 10.5 129.01 11.61"/>
  <polygon class="cls-2" points="129.01 11.61 124.96 11.61 124.96 14.46 128.62 14.46 128.62 15.54 124.96 15.54 124.96 18.39 129.01 18.39 129.01 19.5 123.82 19.5 123.82 10.5 129.01 10.5 129.01 11.61"/>
  <path class="cls-7" d="M135.91,19.7c-.64,0-1.28-.21-1.89-.64s-1.02-1.03-1.21-1.8l1.04-.43c.12.49.38.91.76,1.25.39.34.82.51,1.3.51s.92-.13,1.27-.4c.35-.26.53-.62.53-1.07,0-.5-.17-.89-.53-1.16-.35-.27-.91-.53-1.67-.76-.79-.25-1.38-.57-1.79-.97-.41-.4-.61-.91-.61-1.53s.25-1.21.76-1.68c.5-.48,1.16-.72,1.97-.72.75,0,1.37.19,1.84.57.47.38.78.8.92,1.25l-1.04.44c-.08-.28-.26-.55-.55-.79-.3-.25-.67-.37-1.14-.37-.44,0-.81.12-1.12.37-.31.25-.47.55-.47.92,0,.33.14.62.43.85.29.23.71.44,1.26.62.44.14.8.28,1.1.41.3.13.59.31.89.53.3.22.53.5.69.83.15.33.23.71.23,1.15s-.09.82-.27,1.17-.42.62-.71.82c-.3.2-.61.35-.95.46-.34.11-.69.16-1.04.16"/>
  <path class="cls-2" d="M135.91,19.7c-.64,0-1.28-.21-1.89-.64s-1.02-1.03-1.21-1.8l1.04-.43c.12.49.38.91.76,1.25.39.34.82.51,1.3.51s.92-.13,1.27-.4c.35-.26.53-.62.53-1.07,0-.5-.17-.89-.53-1.16-.35-.27-.91-.53-1.67-.76-.79-.25-1.38-.57-1.79-.97-.41-.4-.61-.91-.61-1.53s.25-1.21.76-1.68c.5-.48,1.16-.72,1.97-.72.75,0,1.37.19,1.84.57.47.38.78.8.92,1.25l-1.04.44c-.08-.28-.26-.55-.55-.79-.3-.25-.67-.37-1.14-.37-.44,0-.81.12-1.12.37-.31.25-.47.55-.47.92,0,.33.14.62.43.85.29.23.71.44,1.26.62.44.14.8.28,1.1.41.3.13.59.31.89.53.3.22.53.5.69.83.15.33.23.71.23,1.15s-.09.82-.27,1.17-.42.62-.71.82c-.3.2-.61.35-.95.46-.34.11-.69.16-1.04.16Z"/>
  <path class="cls-7" d="M143.61,19.7c-.98,0-1.77-.33-2.38-.98-.61-.65-.91-1.51-.91-2.56v-5.66h1.14v5.71c0,.71.18,1.29.55,1.73.36.44.9.66,1.59.66s1.23-.22,1.59-.66c.37-.44.55-1.02.55-1.73v-5.71h1.14v5.66c0,1.06-.3,1.92-.89,2.57-.59.65-1.39.97-2.4.97"/>
  <path class="cls-2" d="M143.61,19.7c-.98,0-1.77-.33-2.38-.98-.61-.65-.91-1.51-.91-2.56v-5.66h1.14v5.71c0,.71.18,1.29.55,1.73.36.44.9.66,1.59.66s1.23-.22,1.59-.66c.37-.44.55-1.02.55-1.73v-5.71h1.14v5.66c0,1.06-.3,1.92-.89,2.57-.59.65-1.39.97-2.4.97Z"/>
  <path class="cls-7" d="M149.88,14.77h1.84c.46,0,.85-.15,1.18-.45.33-.3.49-.68.49-1.14,0-.39-.14-.75-.43-1.08-.29-.32-.68-.49-1.16-.49h-1.91v3.17ZM148.74,19.5v-9h3.03c.75,0,1.4.25,1.95.76.55.51.83,1.15.83,1.92,0,.63-.2,1.18-.61,1.66-.41.48-.91.79-1.52.91l-.02.04,2.49,3.66v.05h-1.35l-2.4-3.64h-1.27v3.64h-1.14Z"/>
  <path class="cls-2" d="M149.88,14.77h1.84c.46,0,.85-.15,1.18-.45.33-.3.49-.68.49-1.14,0-.39-.14-.75-.43-1.08-.29-.32-.68-.49-1.16-.49h-1.91v3.17ZM148.74,19.5v-9h3.03c.75,0,1.4.25,1.95.76.55.51.83,1.15.83,1.92,0,.63-.2,1.18-.61,1.66-.41.48-.91.79-1.52.91l-.02.04,2.49,3.66v.05h-1.35l-2.4-3.64h-1.27v3.64h-1.14Z"/>
</svg>